<svg xmlns="http://www.w3.org/2000/svg" viewBox="0 0 128 128">
  <path fill="#A4373A" d="M0 12.5v103h128v-103H0z"/>
  <path fill="#FFF" d="M73.4 34.4h13.1c6.9 0 12.5 5.6 12.5 12.5v34.2c0 6.9-5.6 12.5-12.5 12.5H73.4c-6.9 0-12.5-5.6-12.5-12.5V46.9c0-6.9 5.6-12.5 12.5-12.5z"/>
  <path fill="#A4373A" d="M73.4 40.9h13.1c3.3 0 6 2.7 6 6v34.2c0 3.3-2.7 6-6 6H73.4c-3.3 0-6-2.7-6-6V46.9c0-3.3 2.7-6 6-6z"/>
  <path fill="#FFF" d="M29 34.4h13.1c6.9 0 12.5 5.6 12.5 12.5v34.2c0 6.9-5.6 12.5-12.5 12.5H29c-6.9 0-12.5-5.6-12.5-12.5V46.9c0-6.9 5.6-12.5 12.5-12.5z"/>
  <path fill="#A4373A" d="M29 40.9h13.1c3.3 0 6 2.7 6 6v34.2c0 3.3-2.7 6-6 6H29c-3.3 0-6-2.7-6-6V46.9c0-3.3 2.7-6 6-6z"/>
  <path fill="#FFF" d="M54.6 53.4h6.7v21.2h-6.7z"/>
</svg> 