<svg xmlns="http://www.w3.org/2000/svg" viewBox="0 0 128 128">
  <path fill="#00979C" d="M45.3 23.8c-10.2 0-18.4 8.3-18.4 18.4 0 10.2 8.3 18.4 18.4 18.4s18.4-8.3 18.4-18.4c0-10.2-8.3-18.4-18.4-18.4zm37.7 0c-10.2 0-18.4 8.3-18.4 18.4 0 10.2 8.3 18.4 18.4 18.4s18.4-8.3 18.4-18.4c0-10.2-8.3-18.4-18.4-18.4zM18.9 42.3c0-14.6 11.8-26.4 26.4-26.4 7.2 0 13.8 2.9 18.6 7.6 4.8-4.7 11.3-7.6 18.6-7.6 14.6 0 26.4 11.8 26.4 26.4 0 14.6-11.8 26.4-26.4 26.4-7.2 0-13.8-2.9-18.6-7.6-4.8 4.7-11.3 7.6-18.6 7.6-14.6 0-26.4-11.8-26.4-26.4zm58.8 0v14.9h16.1V42.3H77.7zm-43.9 0v14.9h16.1V42.3H33.8z"/>
  <path fill="#00979C" d="M83 67.3c-7.2 0-13.8-2.9-18.6-7.6-4.8 4.7-11.3 7.6-18.6 7.6-6.5 0-12.5-2.4-17.1-6.3v17.2h71.4V61c-4.6 3.9-10.6 6.3-17.1 6.3z"/>
  <path fill="#00979C" d="M45.3 23.8c-10.2 0-18.4 8.3-18.4 18.4 0 10.2 8.3 18.4 18.4 18.4s18.4-8.3 18.4-18.4c0-10.2-8.3-18.4-18.4-18.4zm37.7 0c-10.2 0-18.4 8.3-18.4 18.4 0 10.2 8.3 18.4 18.4 18.4s18.4-8.3 18.4-18.4c0-10.2-8.3-18.4-18.4-18.4zM18.9 42.3c0-14.6 11.8-26.4 26.4-26.4 7.2 0 13.8 2.9 18.6 7.6 4.8-4.7 11.3-7.6 18.6-7.6 14.6 0 26.4 11.8 26.4 26.4 0 14.6-11.8 26.4-26.4 26.4-7.2 0-13.8-2.9-18.6-7.6-4.8 4.7-11.3 7.6-18.6 7.6-14.6 0-26.4-11.8-26.4-26.4zm58.8 0v14.9h16.1V42.3H77.7zm-43.9 0v14.9h16.1V42.3H33.8z"/>
  <path fill="#00979C" d="M64 89.4L18.9 78.1v16.4L64 105.8l45.1-11.3V78.1z"/>
</svg> 