<svg xmlns="http://www.w3.org/2000/svg" viewBox="0 0 128 128">
  <defs>
    <linearGradient id="cv-gradient" x1="0%" y1="0%" x2="100%" y2="100%">
      <stop offset="0%" stop-color="#FF416C" />
      <stop offset="100%" stop-color="#FF4B2B" />
    </linearGradient>
  </defs>
  <circle cx="64" cy="64" r="60" fill="url(#cv-gradient)" />
  <g fill="#FFFFFF">
    <!-- Camera lens -->
    <circle cx="64" cy="64" r="24" stroke="#FFFFFF" stroke-width="4" fill="none" />
    <circle cx="64" cy="64" r="16" stroke="#FFFFFF" stroke-width="2" fill="none" />
    <circle cx="64" cy="64" r="8" />
    
    <!-- Focus points -->
    <circle cx="40" cy="40" r="4" />
    <circle cx="88" cy="40" r="4" />
    <circle cx="40" cy="88" r="4" />
    <circle cx="88" cy="88" r="4" />
    
    <!-- Detection frame -->
    <path d="M30 30h12v4H30v-4zM30 30v12h4V30h-4z" />
    <path d="M86 30h12v4H86v-4zM98 30v12h-4V30h4z" />
    <path d="M30 86h12v4H30v-4zM30 98v-12h4v12h-4z" />
    <path d="M86 98h12v-4H86v4zM98 98v-12h-4v12h4z" />
    
    <!-- Data points -->
    <path d="M20 64h8v2h-8z" />
    <path d="M100 64h8v2h-8z" />
    <path d="M64 20v8h2v-8z" />
    <path d="M64 100v8h2v-8z" />
  </g>
</svg> 