<svg xmlns="http://www.w3.org/2000/svg" viewBox="0 0 128 128">
  <path fill="#000" d="M44.44 100.63c-4.1-1.16-7.69-2.32-10.1-3.47-2.15-1.16-3.94-2.31-5.57-3.94-1.48-1.63-2.78-3.78-3.26-6.56-.47-2.63-.47-6.25-.47-11.67v-3.1c0-5.26 0-8.88.47-11.67.48-2.63 1.78-4.94 3.26-6.56 1.63-1.63 3.42-2.79 5.57-3.94 2.41-1.16 6-2.32 10.1-3.48 8.35-2.31 19.4-3.62 31.54-3.62 12.13 0 23.18 1.31 31.54 3.62 4.1 1.16 7.69 2.32 10.1 3.48 2.15 1.15 3.94 2.31 5.57 3.94 1.48 1.62 2.78 3.78 3.26 6.56.47 2.63.47 6.25.47 11.67v3.1c0 5.26 0 8.88-.47 11.67-.48 2.63-1.78 4.93-3.26 6.56-1.63 1.63-3.42 2.78-5.57 3.94-2.41 1.15-6 2.31-10.1 3.47-8.36 2.31-19.41 3.62-31.54 3.62-12.14 0-23.19-1.31-31.54-3.62zm31.54 11.67c31.53 0 57.13-8.72 57.13-19.55v-34.8c0-10.83-25.6-19.55-57.13-19.55S18.85 47.12 18.85 57.95v34.8c0 10.83 25.6 19.55 57.13 19.55z"/>
  <path fill="#000" d="M104.83 72.95c0 3.93-13.1 7.12-29.29 7.12s-29.3-3.19-29.3-7.12V69.8h58.59v3.15z"/>
  <path fill="#000" d="M104.83 62.27c0 3.93-13.1 7.12-29.29 7.12s-29.3-3.19-29.3-7.12v-3.15h58.59v3.15z"/>
  <path fill="#000" d="M104.83 51.6c0 3.92-13.1 7.11-29.29 7.11s-29.3-3.19-29.3-7.11v-3.16h58.59v3.16z"/>
  <path fill="#000" d="M75.54 49.59c16.19 0 29.29-3.19 29.29-7.12 0-3.92-13.1-7.11-29.29-7.11s-29.3 3.19-29.3 7.11c0 3.93 13.11 7.12 29.3 7.12z"/>
</svg> 