<svg xmlns="http://www.w3.org/2000/svg" viewBox="0 0 128 128">
  <path fill="#4CAF50" d="M64 14.034c-27.642 0-50.129 22.487-50.129 50.129S36.358 114.292 64 114.292s50.129-22.487 50.129-50.129S91.642 14.034 64 14.034zm0 92.348c-23.268 0-42.219-18.951-42.219-42.219S40.732 21.944 64 21.944s42.219 18.951 42.219 42.219S87.268 106.382 64 106.382z"/>
  <path fill="#4CAF50" d="M64 32.507c-17.414 0-31.656 14.242-31.656 31.656S46.586 95.819 64 95.819s31.656-14.242 31.656-31.656S81.414 32.507 64 32.507zm0 55.402c-13.04 0-23.746-10.706-23.746-23.746S50.96 40.417 64 40.417s23.746 10.706 23.746 23.746S77.04 87.909 64 87.909z"/>
  <path fill="#4CAF50" d="M64 48.326c-8.707 0-15.837 7.13-15.837 15.837S55.293 80 64 80s15.837-7.13 15.837-15.837S72.707 48.326 64 48.326zm0 23.746c-4.333 0-7.909-3.576-7.909-7.909s3.576-7.909 7.909-7.909 7.909 3.576 7.909 7.909-3.576 7.909-7.909 7.909z"/>
  <path fill="#4CAF50" d="M114.292 64h-8.073c0-23.268-18.951-42.219-42.219-42.219v-8.073c27.642 0 50.129 22.487 50.129 50.129 0 .054-.006.108-.006.163h.169zM64 114.292v-8.073c23.268 0 42.219-18.951 42.219-42.219h8.073c0 27.642-22.487 50.129-50.129 50.129-.054 0-.108-.006-.163-.006v.169zM13.871 64h8.073c0 23.268 18.951 42.219 42.219 42.219v8.073c-27.642 0-50.129-22.487-50.129-50.129 0-.054.006-.108.006-.163h-.169zM64 13.871v8.073c-23.268 0-42.219 18.951-42.219 42.219h-8.073c0-27.642 22.487-50.129 50.129-50.129.054 0 .108.006.163.006v-.169z"/>
  <path fill="#4CAF50" d="M105.983 64c0 23.186-18.797 41.983-41.983 41.983S22.017 87.186 22.017 64 40.814 22.017 64 22.017 105.983 40.814 105.983 64z"/>
  <path fill="#FFC107" d="M64 34.983c-16.025 0-29.017 12.992-29.017 29.017S47.975 93.017 64 93.017 93.017 80.025 93.017 64 80.025 34.983 64 34.983zm0 50.129c-11.651 0-21.112-9.461-21.112-21.112S52.349 42.888 64 42.888 85.112 52.349 85.112 64 75.651 85.112 64 85.112z"/>
  <path fill="#F44336" d="M64 51.112c-7.117 0-12.888 5.771-12.888 12.888S56.883 76.888 64 76.888 76.888 71.117 76.888 64 71.117 51.112 64 51.112zm0 17.909c-2.743 0-5.021-2.278-5.021-5.021s2.278-5.021 5.021-5.021 5.021 2.278 5.021 5.021-2.278 5.021-5.021 5.021z"/>
  <path fill="#3F51B5" d="M111.983 64c0-26.5-21.483-47.983-47.983-47.983S16.017 37.5 16.017 64 37.5 111.983 64 111.983 111.983 90.5 111.983 64zm-7.909 0c0 22.126-17.948 40.074-40.074 40.074S23.926 86.126 23.926 64 41.874 23.926 64 23.926 104.074 41.874 104.074 64z"/>
  <path fill="#03A9F4" d="M64 31.836c-17.734 0-32.164 14.43-32.164 32.164S46.266 96.164 64 96.164 96.164 81.734 96.164 64 81.734 31.836 64 31.836zm0 56.402c-13.36 0-24.238-10.878-24.238-24.238S50.64 39.762 64 39.762 88.238 50.64 88.238 64 77.36 88.238 64 88.238z"/>
  <path fill="#009688" d="M64 47.671c-9.02 0-16.329 7.309-16.329 16.329S54.98 80.329 64 80.329 80.329 73.02 80.329 64 73.02 47.671 64 47.671zm0 24.565c-4.546 0-8.236-3.69-8.236-8.236s3.69-8.236 8.236-8.236 8.236 3.69 8.236 8.236-3.69 8.236-8.236 8.236z"/>
  <path fill="#795548" d="M64 55.764c-4.546 0-8.236 3.69-8.236 8.236s3.69 8.236 8.236 8.236 8.236-3.69 8.236-8.236-3.69-8.236-8.236-8.236zm0 12.435c-2.317 0-4.199-1.882-4.199-4.199s1.882-4.199 4.199-4.199 4.199 1.882 4.199 4.199-1.882 4.199-4.199 4.199z"/>
  <path fill="#FF5722" d="M64 59.801c-2.317 0-4.199 1.882-4.199 4.199s1.882 4.199 4.199 4.199 4.199-1.882 4.199-4.199-1.882-4.199-4.199-4.199z"/>
</svg> 