<svg xmlns="http://www.w3.org/2000/svg" viewBox="0 0 128 128">
  <path d="M64 25.6c-17.2 0-28 9.2-32 27.6 6.4-8.6 13.8-12 22.4-10 4.9 1.2 8.4 4.7 12.3 8.6 6.3 6.4 13.7 13.8 29.3 13.8 17.2 0 28-9.2 32-27.6-6.4 8.6-13.8 12-22.4 10-4.9-1.2-8.4-4.7-12.3-8.6-6.3-6.4-13.7-13.8-29.3-13.8zM32 64c-17.2 0-28 9.2-32 27.6 6.4-8.6 13.8-12 22.4-10 4.9 1.2 8.4 4.7 12.3 8.6 6.3 6.4 13.7 13.8 29.3 13.8 17.2 0 28-9.2 32-27.6-6.4 8.6-13.8 12-22.4 10-4.9-1.2-8.4-4.7-12.3-8.6-6.3-6.4-13.7-13.8-29.3-13.8z" fill="#38bdf8"/>
</svg> 